REM DIRINDEX 1\2,1\3,1\4
REM DIRNAME cjc151,folder01,folder02,folder03
TITLE ""
FILE "116 116_CHAPTER 3_Lesson 1_TOEFL_3900.mp3" MP3
  TRACK 01 AUDIO
    TITLE "0:"
    INDEX 01 00:00:00
  TRACK 02 AUDIO
    TITLE "4:cjc151_5026"
    INDEX 01 00:00:17
  TRACK 03 AUDIO
    TITLE "0:"
    INDEX 01 00:01:62
  TRACK 04 AUDIO
    TITLE "4:cjc151_5027"
    INDEX 01 00:02:42
  TRACK 05 AUDIO
    TITLE "0:"
    INDEX 01 00:03:74
  TRACK 06 AUDIO
    TITLE "2:cjc151_5028"
    INDEX 01 00:04:60
  TRACK 07 AUDIO
    TITLE "0:"
    INDEX 01 00:06:04
  TRACK 08 AUDIO
    TITLE "3:cjc151_5029"
    INDEX 01 00:07:60
  TRACK 09 AUDIO
    TITLE "0:"
    INDEX 01 00:11:11
  TRACK 10 AUDIO
    TITLE "2:cjc151_5030"
    INDEX 01 00:12:65
  TRACK 11 AUDIO
    TITLE "0:"
    INDEX 01 00:13:65
  TRACK 12 AUDIO
    TITLE "3:cjc151_5031"
    INDEX 01 00:15:44
  TRACK 13 AUDIO
    TITLE "0:"
    INDEX 01 00:19:56
  TRACK 14 AUDIO
    TITLE "2:cjc151_5032"
    INDEX 01 00:21:35
  TRACK 15 AUDIO
    TITLE "0:"
    INDEX 01 00:22:50
  TRACK 16 AUDIO
    TITLE "3:cjc151_5033"
    INDEX 01 00:24:29
  TRACK 17 AUDIO
    TITLE "0:"
    INDEX 01 00:28:64
  TRACK 18 AUDIO
    TITLE "2:cjc151_5034"
    INDEX 01 00:30:46
  TRACK 19 AUDIO
    TITLE "0:"
    INDEX 01 00:31:39
  TRACK 20 AUDIO
    TITLE "3:cjc151_5035"
    INDEX 01 00:33:17
  TRACK 21 AUDIO
    TITLE "0:"
    INDEX 01 00:36:35
  TRACK 22 AUDIO
    TITLE "2:cjc151_5036"
    INDEX 01 00:38:12
  TRACK 23 AUDIO
    TITLE "0:"
    INDEX 01 00:39:41
  TRACK 24 AUDIO
    TITLE "3:cjc151_5037"
    INDEX 01 00:41:20
  TRACK 25 AUDIO
    TITLE "0:"
    INDEX 01 00:46:25
  TRACK 26 AUDIO
    TITLE "2:cjc151_5038"
    INDEX 01 00:48:02
  TRACK 27 AUDIO
    TITLE "0:"
    INDEX 01 00:49:23
  TRACK 28 AUDIO
    TITLE "3:cjc151_5039"
    INDEX 01 00:51:03
  TRACK 29 AUDIO
    TITLE "0:"
    INDEX 01 00:55:08
  TRACK 30 AUDIO
    TITLE "2:cjc151_5040"
    INDEX 01 00:56:61
  TRACK 31 AUDIO
    TITLE "0:"
    INDEX 01 00:58:11
  TRACK 32 AUDIO
    TITLE "3:cjc151_5041"
    INDEX 01 00:59:63
  TRACK 33 AUDIO
    TITLE "0:"
    INDEX 01 01:04:00
  TRACK 34 AUDIO
    TITLE "2:cjc151_5042"
    INDEX 01 01:05:50
  TRACK 35 AUDIO
    TITLE "0:"
    INDEX 01 01:06:65
  TRACK 36 AUDIO
    TITLE "3:cjc151_5043"
    INDEX 01 01:08:42
  TRACK 37 AUDIO
    TITLE "0:"
    INDEX 01 01:11:31
  TRACK 38 AUDIO
    TITLE "2:cjc151_5044"
    INDEX 01 01:13:08
  TRACK 39 AUDIO
    TITLE "0:"
    INDEX 01 01:14:00
  TRACK 40 AUDIO
    TITLE "3:cjc151_5045"
    INDEX 01 01:15:54
  TRACK 41 AUDIO
    TITLE "0:"
    INDEX 01 01:19:46
  TRACK 42 AUDIO
    TITLE "2:cjc151_5046"
    INDEX 01 01:21:25
  TRACK 43 AUDIO
    TITLE "0:"
    INDEX 01 01:22:41
  TRACK 44 AUDIO
    TITLE "3:cjc151_5047"
    INDEX 01 01:24:18
  TRACK 45 AUDIO
    TITLE "0:"
    INDEX 01 01:28:00
  TRACK 46 AUDIO
    TITLE "2:cjc151_5048"
    INDEX 01 01:29:54
  TRACK 47 AUDIO
    TITLE "0:"
    INDEX 01 01:30:58
  TRACK 48 AUDIO
    TITLE "3:cjc151_5049"
    INDEX 01 01:32:39
  TRACK 49 AUDIO
    TITLE "0:"
    INDEX 01 01:36:48
  TRACK 50 AUDIO
    TITLE "2:cjc151_5050"
    INDEX 01 01:38:26
  TRACK 51 AUDIO
    TITLE "0:"
    INDEX 01 01:39:37
  TRACK 52 AUDIO
    TITLE "3:cjc151_5051"
    INDEX 01 01:41:16
  TRACK 53 AUDIO
    TITLE "0:"
    INDEX 01 01:45:34
  TRACK 54 AUDIO
    TITLE "2:cjc151_5052"
    INDEX 01 01:47:11
  TRACK 55 AUDIO
    TITLE "0:"
    INDEX 01 01:48:11
  TRACK 56 AUDIO
    TITLE "3:cjc151_5053"
    INDEX 01 01:49:65
  TRACK 57 AUDIO
    TITLE "0:"
    INDEX 01 01:54:21
  TRACK 58 AUDIO
    TITLE "2:cjc151_5054"
    INDEX 01 01:56:00
  TRACK 59 AUDIO
    TITLE "0:"
    INDEX 01 01:57:06
  TRACK 60 AUDIO
    TITLE "3:cjc151_5055"
    INDEX 01 01:58:60
  TRACK 61 AUDIO
    TITLE "0:"
    INDEX 01 02:03:34
  TRACK 62 AUDIO
    TITLE "2:cjc151_5056"
    INDEX 01 02:05:11
  TRACK 63 AUDIO
    TITLE "0:"
    INDEX 01 02:06:20
  TRACK 64 AUDIO
    TITLE "3:cjc151_5057"
    INDEX 01 02:08:00
  TRACK 65 AUDIO
    TITLE "0:"
    INDEX 01 02:11:21
  TRACK 66 AUDIO
    TITLE "2:cjc151_5058"
    INDEX 01 02:13:01
  TRACK 67 AUDIO
    TITLE "0:"
    INDEX 01 02:14:26
  TRACK 68 AUDIO
    TITLE "3:cjc151_5059"
    INDEX 01 02:16:03
  TRACK 69 AUDIO
    TITLE "0:"
    INDEX 01 02:20:14
  TRACK 70 AUDIO
    TITLE "2:cjc151_5060"
    INDEX 01 02:21:65
  TRACK 71 AUDIO
    TITLE "0:"
    INDEX 01 02:23:01
  TRACK 72 AUDIO
    TITLE "3:cjc151_5061"
    INDEX 01 02:24:55
  TRACK 73 AUDIO
    TITLE "0:"
    INDEX 01 02:28:06
  TRACK 74 AUDIO
    TITLE "2:cjc151_5062"
    INDEX 01 02:29:60
  TRACK 75 AUDIO
    TITLE "0:"
    INDEX 01 02:31:03
  TRACK 76 AUDIO
    TITLE "3:cjc151_5063"
    INDEX 01 02:32:53
  TRACK 77 AUDIO
    TITLE "0:"
    INDEX 01 02:36:02
  TRACK 78 AUDIO
    TITLE "2:cjc151_5064"
    INDEX 01 02:37:56
  TRACK 79 AUDIO
    TITLE "0:"
    INDEX 01 02:38:71
  TRACK 80 AUDIO
    TITLE "3:cjc151_5065"
    INDEX 01 02:40:48
  TRACK 81 AUDIO
    TITLE "0:"
    INDEX 01 02:44:44
  TRACK 82 AUDIO
    TITLE "2:cjc151_5066"
    INDEX 01 02:46:24
  TRACK 83 AUDIO
    TITLE "0:"
    INDEX 01 02:47:35
  TRACK 84 AUDIO
    TITLE "3:cjc151_5067"
    INDEX 01 02:49:14
  TRACK 85 AUDIO
    TITLE "0:"
    INDEX 01 02:53:26
  TRACK 86 AUDIO
    TITLE "2:cjc151_5068"
    INDEX 01 02:55:03
  TRACK 87 AUDIO
    TITLE "0:"
    INDEX 01 02:56:04
  TRACK 88 AUDIO
    TITLE "3:cjc151_5069"
    INDEX 01 02:57:57
  TRACK 89 AUDIO
    TITLE "0:"
    INDEX 01 03:01:17
  TRACK 90 AUDIO
    TITLE "2:cjc151_5070"
    INDEX 01 03:02:72
  TRACK 91 AUDIO
    TITLE "0:"
    INDEX 01 03:04:25
  TRACK 92 AUDIO
    TITLE "3:cjc151_5071"
    INDEX 01 03:06:07
  TRACK 93 AUDIO
    TITLE "0:"
    INDEX 01 03:10:38
